<svg width="56" height="56" viewBox="0 0 56 56" fill="none" xmlns="http://www.w3.org/2000/svg">
<path d="M13.6501 39.9C15.6334 38.3833 17.8501 37.1875 20.3001 36.3125C22.7501 35.4375 25.3167 35 28.0001 35C30.6834 35 33.2501 35.4375 35.7001 36.3125C38.1501 37.1875 40.3667 38.3833 42.3501 39.9C43.7112 38.3055 44.7709 36.4972 45.5292 34.475C46.2876 32.4528 46.6667 30.2944 46.6667 28C46.6667 22.8278 44.8487 18.4236 41.2126 14.7875C37.5765 11.1514 33.1723 9.33332 28.0001 9.33332C22.8279 9.33332 18.4237 11.1514 14.7876 14.7875C11.1515 18.4236 9.33341 22.8278 9.33341 28C9.33341 30.2944 9.71258 32.4528 10.4709 34.475C11.2292 36.4972 12.289 38.3055 13.6501 39.9ZM28.0001 30.3333C25.7056 30.3333 23.7709 29.5458 22.1959 27.9708C20.6209 26.3958 19.8334 24.4611 19.8334 22.1667C19.8334 19.8722 20.6209 17.9375 22.1959 16.3625C23.7709 14.7875 25.7056 14 28.0001 14C30.2945 14 32.2292 14.7875 33.8042 16.3625C35.3792 17.9375 36.1667 19.8722 36.1667 22.1667C36.1667 24.4611 35.3792 26.3958 33.8042 27.9708C32.2292 29.5458 30.2945 30.3333 28.0001 30.3333ZM28.0001 51.3333C24.7723 51.3333 21.739 50.7208 18.9001 49.4958C16.0612 48.2708 13.5917 46.6083 11.4917 44.5083C9.39175 42.4083 7.72925 39.9389 6.50425 37.1C5.27925 34.2611 4.66675 31.2278 4.66675 28C4.66675 24.7722 5.27925 21.7389 6.50425 18.9C7.72925 16.0611 9.39175 13.5917 11.4917 11.4917C13.5917 9.39166 16.0612 7.72916 18.9001 6.50416C21.739 5.27916 24.7723 4.66666 28.0001 4.66666C31.2279 4.66666 34.2612 5.27916 37.1001 6.50416C39.939 7.72916 42.4084 9.39166 44.5084 11.4917C46.6084 13.5917 48.2709 16.0611 49.4959 18.9C50.7209 21.7389 51.3334 24.7722 51.3334 28C51.3334 31.2278 50.7209 34.2611 49.4959 37.1C48.2709 39.9389 46.6084 42.4083 44.5084 44.5083C42.4084 46.6083 39.939 48.2708 37.1001 49.4958C34.2612 50.7208 31.2279 51.3333 28.0001 51.3333Z" fill="#1D1B20"/>
</svg>
