<svg width="33" height="33" viewBox="0 0 33 33" fill="none" xmlns="http://www.w3.org/2000/svg">
<path d="M14.9195 23.1668H17.5862V17.8334H22.9196V15.1668H17.5862V9.83339H14.9195V15.1668H9.58614V17.8334H14.9195V23.1668ZM16.2529 29.8335C14.4084 29.8335 12.6751 29.4891 11.0528 28.8002C9.43059 28.0891 8.01947 27.1335 6.81946 25.9335C5.61945 24.7335 4.66389 23.3224 3.95277 21.7001C3.26388 20.0779 2.91943 18.3446 2.91943 16.5001C2.91943 14.6556 3.26388 12.9223 3.95277 11.3001C4.66389 9.67784 5.61945 8.26672 6.81946 7.06671C8.01947 5.8667 9.43059 4.92225 11.0528 4.23336C12.6751 3.52224 14.4084 3.16669 16.2529 3.16669C18.0973 3.16669 19.8307 3.52224 21.4529 4.23336C23.0751 4.92225 24.4862 5.8667 25.6862 7.06671C26.8863 8.26672 27.8307 9.67784 28.5196 11.3001C29.2307 12.9223 29.5863 14.6556 29.5863 16.5001C29.5863 18.3446 29.2307 20.0779 28.5196 21.7001C27.8307 23.3224 26.8863 24.7335 25.6862 25.9335C24.4862 27.1335 23.0751 28.0891 21.4529 28.8002C19.8307 29.4891 18.0973 29.8335 16.2529 29.8335ZM16.2529 27.1668C19.2306 27.1668 21.7529 26.1335 23.8196 24.0668C25.8862 22.0001 26.9196 19.4779 26.9196 16.5001C26.9196 13.5223 25.8862 11.0001 23.8196 8.93339C21.7529 6.86671 19.2306 5.83337 16.2529 5.83337C13.2751 5.83337 10.7528 6.86671 8.68614 8.93339C6.61946 11.0001 5.58612 13.5223 5.58612 16.5001C5.58612 19.4779 6.61946 22.0001 8.68614 24.0668C10.7528 26.1335 13.2751 27.1668 16.2529 27.1668Z" fill="#1D1B20"/>
</svg>
