<svg width="30" height="31" viewBox="0 0 30 31" fill="none" xmlns="http://www.w3.org/2000/svg">
<path d="M27.0526 14.247H7.46224L19.1877 4.22684C19.3752 4.06533 19.2613 3.76538 19.0136 3.76538H16.0504C15.9198 3.76538 15.7959 3.81153 15.6988 3.89393L3.04594 14.7018C2.93006 14.8007 2.83712 14.923 2.77342 15.0603C2.70972 15.1977 2.67676 15.3469 2.67676 15.4979C2.67676 15.6488 2.70972 15.798 2.77342 15.9354C2.83712 16.0727 2.93006 16.195 3.04594 16.2939L15.7725 27.1677C15.8227 27.2106 15.883 27.2336 15.9466 27.2336H19.0102C19.258 27.2336 19.3718 26.9304 19.1843 26.7722L7.46224 16.752H27.0526C27.2 16.752 27.3205 16.6334 27.3205 16.4883V14.5107C27.3205 14.3656 27.2 14.247 27.0526 14.247Z" fill="black" fill-opacity="0.85"/>
</svg>
