<svg width="31" height="30" viewBox="0 0 31 30" fill="none" xmlns="http://www.w3.org/2000/svg">
<path d="M27.2782 13.7364H7.52458L19.3477 3.63278C19.5368 3.46993 19.422 3.16748 19.1722 3.16748H16.1843C16.0526 3.16748 15.9277 3.21401 15.8298 3.2971L3.07148 14.1951C2.95463 14.2948 2.86091 14.4181 2.79669 14.5566C2.73246 14.695 2.69922 14.8455 2.69922 14.9977C2.69922 15.15 2.73246 15.3004 2.79669 15.4389C2.86091 15.5774 2.95463 15.7007 3.07148 15.8004L15.9041 26.7648C15.9547 26.808 16.0155 26.8313 16.0797 26.8313H19.1688C19.4186 26.8313 19.5334 26.5255 19.3444 26.366L7.52458 16.2623H27.2782C27.4268 16.2623 27.5483 16.1427 27.5483 15.9965V14.0023C27.5483 13.8561 27.4268 13.7364 27.2782 13.7364Z" fill="black" fill-opacity="0.85"/>
</svg>
