<svg width="18" height="18" viewBox="0 0 18 18" fill="none" xmlns="http://www.w3.org/2000/svg">
<g clip-path="url(#clip0_318_91431)">
<path fill-rule="evenodd" clip-rule="evenodd" d="M0 0H34.2003V1.38463H0V0ZM0 2.76926H34.2003V4.15389H0V2.76926ZM0 5.53852H34.2003V6.92314H0V5.53852ZM0 8.30777H34.2003V9.6924H0V8.30777ZM0 11.077H34.2003V12.4617H0V11.077ZM0 13.8463H34.2003V15.2309H0V13.8463ZM0 16.6155H34.2003V18.0002H0V16.6155Z" fill="#BD3D44"/>
<path fill-rule="evenodd" clip-rule="evenodd" d="M0 1.38464H34.2003V2.76927H0V1.38464ZM0 4.1539H34.2003V5.53853H0V4.1539ZM0 6.92316H34.2003V8.30779H0V6.92316ZM0 9.69242H34.2003V11.077H0V9.69242ZM0 12.4617H34.2003V13.8463H0V12.4617ZM0 15.2309H34.2003V16.6156H0V15.2309Z" fill="white"/>
<path fill-rule="evenodd" clip-rule="evenodd" d="M0 0H13.6801V9.6924H0V0Z" fill="#192F5D"/>
<path fill-rule="evenodd" clip-rule="evenodd" d="M1.13536 0.415375L1.27382 0.803071H1.66152L1.34305 1.03846L1.46767 1.41231L1.13536 1.17692L0.830741 1.41231L0.955358 1.03846L0.623047 0.803071H1.03844L1.13536 0.415375ZM3.42 0.415375L3.54461 0.803071H3.94616L3.61385 1.03846L3.75231 1.41231L3.42 1.17692L3.08769 1.41231L3.22615 1.03846L2.89384 0.803071H3.29538L3.42 0.415375ZM5.70464 0.415375L5.82925 0.803071H6.23079L5.89848 1.03846L6.03695 1.41231L5.70464 1.17692L5.37232 1.41231L5.51079 1.03846L5.17848 0.803071H5.58002L5.70464 0.415375ZM7.97543 0.415375L8.11389 0.803071H8.50159L8.18312 1.03846L8.30774 1.41231L7.97543 1.17692L7.65696 1.41231L7.78158 1.03846L7.44927 0.803071H7.86466L7.97543 0.415375ZM10.2601 0.415375L10.3847 0.803071H10.7862L10.4539 1.03846L10.5924 1.41231L10.2462 1.17692L9.92775 1.41231L10.0524 1.03846L9.72006 0.803071H10.1216L10.2601 0.415375ZM12.5447 0.415375L12.6693 0.803071H13.0709L12.7386 1.03846L12.877 1.41231L12.5447 1.17692L12.2124 1.41231L12.3509 1.03846L12.0185 0.803071H12.4201L12.5447 0.415375ZM2.2846 1.38461L2.40922 1.77231H2.81076L2.47845 2.0077L2.61691 2.38155L2.2846 2.14616L1.95229 2.38155L2.09075 2.0077L1.75844 1.77231H2.15999L2.2846 1.38461ZM4.55539 1.38461L4.69386 1.77231H5.08155L4.76309 2.0077L4.8877 2.38155L4.55539 2.14616L4.23693 2.38155L4.36155 2.0077L4.02923 1.77231H4.44462L4.55539 1.38461ZM6.84003 1.38461L6.96465 1.77231H7.36619L7.03388 2.0077L7.17234 2.38155L6.84003 2.14616L6.50772 2.38155L6.64618 2.0077L6.31387 1.77231H6.71541L6.84003 1.38461ZM9.12467 1.38461L9.24929 1.77231H9.65083L9.31852 2.0077L9.45698 2.38155L9.12467 2.14616L8.79236 2.38155L8.93082 2.0077L8.59851 1.77231H9.00005L9.12467 1.38461ZM11.3955 1.38461L11.5339 1.77231H11.9078L11.5893 2.0077L11.7139 2.38155L11.3816 2.14616L11.0631 2.38155L11.1878 2.0077L10.8555 1.77231H11.2708L11.3955 1.38461ZM1.14921 2.35386L1.25998 2.74155H1.67536L1.34305 2.97694L1.46767 3.35079L1.13536 3.1154L0.830741 3.35079L0.955358 2.97694L0.623047 2.74155H1.03844L1.14921 2.35386ZM3.42 2.35386L3.54461 2.74155H3.94616L3.62769 2.97694L3.75231 3.35079L3.42 3.1154L3.10153 3.35079L3.22615 2.97694L2.89384 2.74155H3.29538L3.42 2.35386ZM5.70464 2.35386L5.82925 2.74155H6.23079L5.89848 2.97694L6.03695 3.35079L5.70464 3.1154L5.37232 3.35079L5.51079 2.97694L5.17848 2.74155H5.58002L5.70464 2.35386ZM7.97543 2.35386L8.11389 2.74155H8.50159L8.18312 2.97694L8.30774 3.35079L7.97543 3.1154L7.65696 3.35079L7.78158 2.97694L7.44927 2.74155H7.86466L7.97543 2.35386ZM10.2601 2.35386L10.3847 2.74155H10.7862L10.4678 2.97694L10.5924 3.35079L10.2601 3.1154L9.9416 3.35079L10.0662 2.97694L9.73391 2.74155H10.1354L10.2601 2.35386ZM12.5447 2.35386L12.6693 2.74155H13.0709L12.7386 2.97694L12.877 3.35079L12.5447 3.1154L12.2124 3.35079L12.3509 2.97694L12.0185 2.74155H12.4201L12.5447 2.35386ZM2.2846 3.3231L2.40922 3.71079H2.81076L2.47845 3.94618L2.61691 4.32003L2.2846 4.08464L1.95229 4.32003L2.09075 3.94618L1.75844 3.71079H2.15999L2.2846 3.3231ZM4.55539 3.3231L4.69386 3.71079H5.08155L4.76309 3.94618L4.8877 4.32003L4.55539 4.08464L4.23693 4.32003L4.36155 3.94618L4.02923 3.71079H4.44462L4.55539 3.3231ZM6.84003 3.3231L6.96465 3.71079H7.36619L7.04773 3.94618L7.17234 4.32003L6.84003 4.08464L6.52157 4.32003L6.64618 3.94618L6.31387 3.71079H6.71541L6.84003 3.3231ZM9.12467 3.3231L9.24929 3.71079H9.65083L9.31852 3.94618L9.45698 4.32003L9.12467 4.08464L8.79236 4.32003L8.93082 3.94618L8.59851 3.71079H9.00005L9.12467 3.3231ZM11.3955 3.3231L11.5339 3.71079H11.9078L11.5893 3.94618L11.7139 4.32003L11.3816 4.08464L11.0631 4.32003L11.1878 3.94618L10.8555 3.71079H11.2708L11.3955 3.3231ZM1.14921 4.29234L1.25998 4.68003H1.67536L1.34305 4.91542L1.46767 5.28927L1.13536 5.05388L0.830741 5.28927L0.955358 4.91542L0.623047 4.68003H1.03844L1.14921 4.29234ZM3.42 4.29234L3.54461 4.68003H3.94616L3.62769 4.91542L3.75231 5.28927L3.42 5.05388L3.10153 5.28927L3.22615 4.91542L2.89384 4.68003H3.29538L3.42 4.29234ZM5.70464 4.29234L5.82925 4.68003H6.23079L5.89848 4.91542L6.03695 5.28927L5.70464 5.05388L5.37232 5.28927L5.51079 4.91542L5.17848 4.68003H5.58002L5.70464 4.29234ZM7.97543 4.29234L8.11389 4.68003H8.50159L8.18312 4.91542L8.30774 5.28927L7.97543 5.05388L7.65696 5.28927L7.78158 4.91542L7.44927 4.68003H7.86466L7.97543 4.29234ZM10.2601 4.29234L10.3847 4.68003H10.7862L10.4678 4.91542L10.5924 5.28927L10.2601 5.05388L9.9416 5.28927L10.0662 4.91542L9.73391 4.68003H10.1354L10.2601 4.29234ZM12.5447 4.29234L12.6693 4.68003H13.0709L12.7386 4.91542L12.877 5.28927L12.5447 5.05388L12.2124 5.28927L12.3509 4.91542L12.0185 4.68003H12.4201L12.5447 4.29234ZM2.2846 5.26158L2.40922 5.64927H2.81076L2.47845 5.88466L2.61691 6.25851L2.2846 6.02312L1.95229 6.25851L2.09075 5.88466L1.75844 5.64927H2.15999L2.2846 5.26158ZM4.55539 5.26158L4.69386 5.64927H5.08155L4.76309 5.88466L4.8877 6.25851L4.55539 6.02312L4.23693 6.25851L4.36155 5.88466L4.02923 5.64927H4.44462L4.55539 5.26158ZM6.84003 5.26158L6.96465 5.64927H7.36619L7.04773 5.88466L7.17234 6.25851L6.84003 6.02312L6.52157 6.25851L6.64618 5.88466L6.31387 5.64927H6.71541L6.84003 5.26158ZM9.12467 5.26158L9.24929 5.64927H9.65083L9.31852 5.88466L9.45698 6.25851L9.12467 6.02312L8.79236 6.25851L8.93082 5.88466L8.59851 5.64927H9.00005L9.12467 5.26158ZM11.3955 5.26158L11.5339 5.64927H11.9078L11.5893 5.88466L11.7139 6.25851L11.3816 6.02312L11.0631 6.25851L11.1878 5.88466L10.8555 5.64927H11.2708L11.3955 5.26158ZM1.14921 6.23082L1.25998 6.61851H1.67536L1.34305 6.8539L1.46767 7.22775L1.13536 6.99236L0.830741 7.22775L0.955358 6.8539L0.623047 6.61851H1.03844L1.14921 6.23082ZM3.42 6.23082L3.54461 6.61851H3.94616L3.62769 6.8539L3.75231 7.22775L3.42 6.99236L3.10153 7.22775L3.22615 6.8539L2.89384 6.61851H3.29538L3.42 6.23082ZM5.70464 6.23082L5.82925 6.61851H6.23079L5.89848 6.8539L6.03695 7.22775L5.70464 6.99236L5.37232 7.22775L5.51079 6.8539L5.17848 6.61851H5.58002L5.70464 6.23082ZM7.97543 6.23082L8.11389 6.61851H8.50159L8.18312 6.8539L8.30774 7.22775L7.97543 6.99236L7.65696 7.22775L7.78158 6.8539L7.44927 6.61851H7.86466L7.97543 6.23082ZM10.2601 6.23082L10.3847 6.61851H10.7862L10.4678 6.8539L10.5924 7.22775L10.2601 6.99236L9.9416 7.22775L10.0662 6.8539L9.73391 6.61851H10.1354L10.2601 6.23082ZM12.5447 6.23082L12.6693 6.61851H13.0709L12.7386 6.8539L12.877 7.22775L12.5447 6.99236L12.2124 7.22775L12.3509 6.8539L12.0185 6.61851H12.4201L12.5447 6.23082ZM2.2846 7.20006L2.40922 7.58775H2.81076L2.47845 7.82314L2.61691 8.19699L2.2846 7.9616L1.95229 8.19699L2.09075 7.82314L1.75844 7.58775H2.15999L2.2846 7.20006ZM4.55539 7.20006L4.69386 7.58775H5.08155L4.76309 7.82314L4.8877 8.19699L4.55539 7.9616L4.23693 8.19699L4.36155 7.82314L4.02923 7.58775H4.44462L4.55539 7.20006ZM6.84003 7.20006L6.96465 7.58775H7.36619L7.04773 7.82314L7.17234 8.19699L6.84003 7.9616L6.52157 8.19699L6.64618 7.82314L6.31387 7.58775H6.71541L6.84003 7.20006ZM9.12467 7.20006L9.24929 7.58775H9.65083L9.31852 7.82314L9.45698 8.19699L9.12467 7.9616L8.79236 8.19699L8.93082 7.82314L8.59851 7.58775H9.00005L9.12467 7.20006ZM11.3955 7.20006L11.5339 7.58775H11.9078L11.5893 7.82314L11.7139 8.19699L11.3816 7.9616L11.0631 8.19699L11.1878 7.82314L10.8555 7.58775H11.2708L11.3955 7.20006ZM1.14921 8.1693L1.25998 8.55699H1.67536L1.34305 8.79238L1.46767 9.16623L1.13536 8.93084L0.830741 9.16623L0.955358 8.79238L0.623047 8.55699H1.03844L1.14921 8.1693ZM3.42 8.1693L3.54461 8.55699H3.94616L3.62769 8.79238L3.75231 9.16623L3.42 8.93084L3.10153 9.16623L3.22615 8.79238L2.89384 8.55699H3.29538L3.42 8.1693ZM5.70464 8.1693L5.82925 8.55699H6.23079L5.89848 8.79238L6.03695 9.16623L5.70464 8.93084L5.37232 9.16623L5.51079 8.79238L5.17848 8.55699H5.58002L5.70464 8.1693ZM7.97543 8.1693L8.11389 8.55699H8.50159L8.18312 8.79238L8.30774 9.16623L7.97543 8.93084L7.65696 9.16623L7.78158 8.79238L7.44927 8.55699H7.86466L7.97543 8.1693ZM10.2601 8.1693L10.3847 8.55699H10.7862L10.4678 8.79238L10.5924 9.16623L10.2601 8.93084L9.9416 9.16623L10.0662 8.79238L9.73391 8.55699H10.1354L10.2601 8.1693ZM12.5447 8.1693L12.6693 8.55699H13.0709L12.7386 8.79238L12.877 9.16623L12.5447 8.93084L12.2124 9.16623L12.3509 8.79238L12.0185 8.55699H12.4201L12.5447 8.1693Z" fill="white"/>
</g>
<defs>
<clipPath id="clip0_318_91431">
<rect width="18" height="18" rx="9" fill="white"/>
</clipPath>
</defs>
</svg>
