<svg width="33" height="32" viewBox="0 0 33 32" fill="none" xmlns="http://www.w3.org/2000/svg">
<g clip-path="url(#clip0_301_5919)">
<path d="M0.25293 26.6667V22.9667C0.25293 22.2112 0.44182 21.5112 0.8196 20.8667C1.19738 20.2223 1.71961 19.7334 2.38628 19.4C2.69739 19.2445 2.99739 19.1 3.28628 18.9667C3.5974 18.8334 3.91962 18.7111 4.25295 18.6V26.6667H0.25293ZM5.5863 17.3334C4.47518 17.3334 3.53073 16.9445 2.75295 16.1667C1.97516 15.3889 1.58627 14.4445 1.58627 13.3333C1.58627 12.2222 1.97516 11.2778 2.75295 10.5C3.53073 9.7222 4.47518 9.33331 5.5863 9.33331C6.69741 9.33331 7.64186 9.7222 8.41965 10.5C9.19743 11.2778 9.58632 12.2222 9.58632 13.3333C9.58632 14.4445 9.19743 15.3889 8.41965 16.1667C7.64186 16.9445 6.69741 17.3334 5.5863 17.3334ZM5.5863 14.6667C5.96408 14.6667 6.27519 14.5445 6.51964 14.3C6.7863 14.0333 6.91964 13.7111 6.91964 13.3333C6.91964 12.9556 6.7863 12.6444 6.51964 12.4C6.27519 12.1333 5.96408 12 5.5863 12C5.20852 12 4.88629 12.1333 4.61962 12.4C4.37518 12.6444 4.25295 12.9556 4.25295 13.3333C4.25295 13.7111 4.37518 14.0333 4.61962 14.3C4.88629 14.5445 5.20852 14.6667 5.5863 14.6667ZM5.5863 26.6667V22.9334C5.5863 22.1778 5.77519 21.4889 6.15297 20.8667C6.55297 20.2223 7.07519 19.7334 7.71964 19.4C9.09743 18.7111 10.4974 18.2 11.9197 17.8667C13.3419 17.5111 14.7864 17.3334 16.253 17.3334C17.7197 17.3334 19.1642 17.5111 20.5864 17.8667C22.0086 18.2 23.4086 18.7111 24.7864 19.4C25.4309 19.7334 25.942 20.2223 26.3198 20.8667C26.7198 21.4889 26.9198 22.1778 26.9198 22.9334V26.6667H5.5863ZM8.25298 24.0001H24.2531V22.9334C24.2531 22.6889 24.1864 22.4667 24.0531 22.2667C23.942 22.0667 23.7864 21.9112 23.5864 21.8001C22.3864 21.2 21.1753 20.7556 19.9531 20.4667C18.7308 20.1556 17.4975 20 16.253 20C15.0086 20 13.7752 20.1556 12.553 20.4667C11.3308 20.7556 10.1197 21.2 8.91965 21.8001C8.71965 21.9112 8.55298 22.0667 8.41965 22.2667C8.30853 22.4667 8.25298 22.6889 8.25298 22.9334V24.0001ZM16.253 16C14.7864 16 13.5308 15.4778 12.4863 14.4333C11.4419 13.3889 10.9197 12.1333 10.9197 10.6666C10.9197 9.19997 11.4419 7.94441 12.4863 6.89996C13.5308 5.85551 14.7864 5.33328 16.253 5.33328C17.7197 5.33328 18.9753 5.85551 20.0197 6.89996C21.0642 7.94441 21.5864 9.19997 21.5864 10.6666C21.5864 12.1333 21.0642 13.3889 20.0197 14.4333C18.9753 15.4778 17.7197 16 16.253 16ZM16.253 13.3333C16.9864 13.3333 17.6086 13.0778 18.1197 12.5667C18.653 12.0333 18.9197 11.4 18.9197 10.6666C18.9197 9.93331 18.653 9.31109 18.1197 8.79997C17.6086 8.26663 16.9864 7.99997 16.253 7.99997C15.5197 7.99997 14.8864 8.26663 14.353 8.79997C13.8419 9.31109 13.5863 9.93331 13.5863 10.6666C13.5863 11.4 13.8419 12.0333 14.353 12.5667C14.8864 13.0778 15.5197 13.3333 16.253 13.3333ZM26.9198 17.3334C25.8086 17.3334 24.8642 16.9445 24.0864 16.1667C23.3086 15.3889 22.9197 14.4445 22.9197 13.3333C22.9197 12.2222 23.3086 11.2778 24.0864 10.5C24.8642 9.7222 25.8086 9.33331 26.9198 9.33331C28.0309 9.33331 28.9753 9.7222 29.7531 10.5C30.5309 11.2778 30.9198 12.2222 30.9198 13.3333C30.9198 14.4445 30.5309 15.3889 29.7531 16.1667C28.9753 16.9445 28.0309 17.3334 26.9198 17.3334ZM26.9198 14.6667C27.2975 14.6667 27.6087 14.5445 27.8531 14.3C28.1198 14.0333 28.2531 13.7111 28.2531 13.3333C28.2531 12.9556 28.1198 12.6444 27.8531 12.4C27.6087 12.1333 27.2975 12 26.9198 12C26.542 12 26.2198 12.1333 25.9531 12.4C25.7086 12.6444 25.5864 12.9556 25.5864 13.3333C25.5864 13.7111 25.7086 14.0333 25.9531 14.3C26.2198 14.5445 26.542 14.6667 26.9198 14.6667ZM28.2531 26.6667V18.6C28.5864 18.7111 28.8976 18.8334 29.1864 18.9667C29.4976 19.1 29.8087 19.2445 30.1198 19.4C30.7865 19.7334 31.3087 20.2223 31.6865 20.8667C32.0642 21.5112 32.2531 22.2112 32.2531 22.9667V26.6667H28.2531Z" fill="#1D1B20"/>
</g>
<defs>
<clipPath id="clip0_301_5919">
<rect width="32.0002" height="32.0002" fill="white" transform="translate(0.25293 -9.15527e-05)"/>
</clipPath>
</defs>
</svg>
