<svg width="14" height="14" viewBox="0 0 14 14" fill="none" xmlns="http://www.w3.org/2000/svg">
<g clip-path="url(#clip0_301_5478)">
<path d="M7.00033 12.8333C10.222 12.8333 12.8337 10.2217 12.8337 6.99999C12.8337 3.77833 10.222 1.16666 7.00033 1.16666C3.77866 1.16666 1.16699 3.77833 1.16699 6.99999C1.16699 10.2217 3.77866 12.8333 7.00033 12.8333Z" stroke="#6B7280" stroke-linecap="round" stroke-linejoin="round"/>
<path d="M5.30273 5.25C5.43988 4.86014 5.71057 4.53139 6.06687 4.32199C6.42318 4.11259 6.84209 4.03604 7.24942 4.10591C7.65675 4.17578 8.02621 4.38755 8.29236 4.70372C8.55852 5.01989 8.70418 5.42005 8.70357 5.83333C8.70357 7 6.95357 7.58333 6.95357 7.58333" stroke="#6B7280" stroke-linecap="round" stroke-linejoin="round"/>
<path d="M7 9.91667H7.00583" stroke="#6B7280" stroke-linecap="round" stroke-linejoin="round"/>
</g>
<defs>
<clipPath id="clip0_301_5478">
<rect width="14" height="14" fill="white"/>
</clipPath>
</defs>
</svg>
