<svg width="13" height="13" viewBox="0 0 13 13" fill="none" xmlns="http://www.w3.org/2000/svg">
<path d="M9.66115 2.56621V1.53094C9.66115 1.44121 9.55803 1.39166 9.48839 1.44657L3.45088 6.16219C3.39959 6.20209 3.35808 6.25317 3.32953 6.31154C3.30098 6.36992 3.28613 6.43404 3.28613 6.49902C3.28613 6.56401 3.30098 6.62813 3.32953 6.68651C3.35808 6.74488 3.39959 6.79596 3.45088 6.83585L9.48839 11.5515C9.55937 11.6064 9.66115 11.5568 9.66115 11.4671V10.4318C9.66115 10.3662 9.63035 10.3033 9.57946 10.2631L4.75803 6.49969L9.57946 2.73496C9.63035 2.69478 9.66115 2.63184 9.66115 2.56621Z" fill="#D9D9D9"/>
</svg>
