<svg width="24" height="24" viewBox="0 0 24 24" fill="none" xmlns="http://www.w3.org/2000/svg">
<g clip-path="url(#clip0_456_91538)">
<path d="M22.0156 12.5808C22.4656 11.9862 22.7147 11.2576 22.7147 10.4996C22.7147 9.29692 22.0424 8.15852 20.9602 7.5237C20.6817 7.3603 20.3645 7.27429 20.0415 7.27459H13.6183L13.779 3.98263C13.8165 3.18709 13.5352 2.43174 12.9888 1.85584C12.7206 1.57199 12.3971 1.34615 12.0382 1.19227C11.6793 1.03839 11.2927 0.959749 10.9022 0.961201C9.50935 0.961201 8.27721 1.8987 7.90756 3.24067L5.60667 11.571H2.14328C1.66917 11.571 1.28613 11.9541 1.28613 12.4282V22.1782C1.28613 22.6523 1.66917 23.0353 2.14328 23.0353H18.2495C18.496 23.0353 18.737 22.9871 18.9593 22.8907C20.2343 22.3469 21.0567 21.1014 21.0567 19.7192C21.0567 19.3817 21.0085 19.0496 20.912 18.7282C21.362 18.1335 21.6111 17.405 21.6111 16.6469C21.6111 16.3094 21.5629 15.9773 21.4665 15.6558C21.9165 15.0612 22.1656 14.3326 22.1656 13.5746C22.1602 13.2371 22.112 12.9023 22.0156 12.5808V12.5808ZM3.2147 21.1067V13.4996H5.38435V21.1067H3.2147ZM20.2611 11.6514L19.6745 12.1603L20.0468 12.8407C20.1695 13.0648 20.2331 13.3164 20.2317 13.5719C20.2317 14.0139 20.0388 14.4344 19.7067 14.7237L19.1201 15.2326L19.4924 15.913C19.615 16.1371 19.6786 16.3888 19.6772 16.6442C19.6772 17.0862 19.4843 17.5067 19.1522 17.796L18.5656 18.305L18.9379 18.9853C19.0606 19.2094 19.1242 19.4611 19.1227 19.7166C19.1227 20.3166 18.7692 20.8576 18.2227 21.1041H7.09863V13.4139L9.76381 3.75763C9.83254 3.51013 9.98006 3.29178 10.184 3.13566C10.388 2.97953 10.6373 2.89415 10.8942 2.89245C11.0977 2.89245 11.2986 2.95138 11.4593 3.07192C11.7245 3.27013 11.8665 3.57013 11.8504 3.88888L11.5933 9.20317H20.0147C20.4915 9.49513 20.7861 9.98799 20.7861 10.4996C20.7861 10.9416 20.5933 11.3594 20.2611 11.6514Z" fill="black" fill-opacity="0.85"/>
</g>
<defs>
<clipPath id="clip0_456_91538">
<rect width="24" height="24" fill="white"/>
</clipPath>
</defs>
</svg>
