<svg width="56" height="57" viewBox="0 0 56 57" fill="none" xmlns="http://www.w3.org/2000/svg">
<path d="M25.6667 33.1667V23.4833L21.9333 27.2167L18.6667 23.8333L28 14.5L37.3333 23.8333L34.0667 27.2167L30.3333 23.4833V33.1667H25.6667ZM11.6667 49.5C10.3833 49.5 9.275 49.0528 8.34167 48.1583C7.44722 47.225 7 46.1167 7 44.8333V12.1667C7 10.8833 7.44722 9.79445 8.34167 8.9C9.275 7.96667 10.3833 7.5 11.6667 7.5H44.3333C45.6167 7.5 46.7056 7.96667 47.6 8.9C48.5333 9.79445 49 10.8833 49 12.1667V44.8333C49 46.1167 48.5333 47.225 47.6 48.1583C46.7056 49.0528 45.6167 49.5 44.3333 49.5H11.6667ZM11.6667 44.8333H44.3333V37.8333H37.3333C36.1667 39.3111 34.7667 40.4583 33.1333 41.275C31.5389 42.0917 29.8278 42.5 28 42.5C26.1722 42.5 24.4417 42.0917 22.8083 41.275C21.2139 40.4583 19.8333 39.3111 18.6667 37.8333H11.6667V44.8333ZM28 37.8333C29.4778 37.8333 30.8194 37.4056 32.025 36.55C33.2306 35.6944 34.0667 34.5667 34.5333 33.1667H44.3333V12.1667H11.6667V33.1667H21.4667C21.9333 34.5667 22.7694 35.6944 23.975 36.55C25.1806 37.4056 26.5222 37.8333 28 37.8333ZM11.6667 44.8333H18.6667C19.8333 44.8333 21.2139 44.8333 22.8083 44.8333C24.4417 44.8333 26.1722 44.8333 28 44.8333C29.8278 44.8333 31.5389 44.8333 33.1333 44.8333C34.7667 44.8333 36.1667 44.8333 37.3333 44.8333H44.3333H11.6667Z" fill="#1D1B20"/>
</svg>
