<svg width="57" height="56" viewBox="0 0 57 56" fill="none" xmlns="http://www.w3.org/2000/svg">
<path d="M28.2502 28C25.6835 28 23.4863 27.0862 21.6585 25.2584C19.8307 23.4306 18.9168 21.2334 18.9168 18.6667C18.9168 16.1 19.8307 13.9028 21.6585 12.075C23.4863 10.2473 25.6835 9.33337 28.2502 9.33337C30.8168 9.33337 33.0141 10.2473 34.8418 12.075C36.6696 13.9028 37.5835 16.1 37.5835 18.6667C37.5835 21.2334 36.6696 23.4306 34.8418 25.2584C33.0141 27.0862 30.8168 28 28.2502 28ZM9.5835 46.6667V40.1334C9.5835 38.8112 9.92377 37.5959 10.6043 36.4875C11.2849 35.3792 12.1891 34.5334 13.3168 33.95C15.7279 32.7445 18.1779 31.8403 20.6668 31.2375C23.1557 30.6348 25.6835 30.3334 28.2502 30.3334C30.8168 30.3334 33.3446 30.6348 35.8335 31.2375C38.3224 31.8403 40.7724 32.7445 43.1835 33.95C44.3113 34.5334 45.2154 35.3792 45.896 36.4875C46.5766 37.5959 46.9168 38.8112 46.9168 40.1334V46.6667H9.5835ZM14.2502 42H42.2502V40.1334C42.2502 39.7056 42.1432 39.3167 41.9293 38.9667C41.7154 38.6167 41.4335 38.3445 41.0835 38.15C38.9835 37.1 36.8641 36.3125 34.7252 35.7875C32.5863 35.2625 30.4279 35 28.2502 35C26.0724 35 23.9141 35.2625 21.7752 35.7875C19.6363 36.3125 17.5168 37.1 15.4168 38.15C15.0668 38.3445 14.7849 38.6167 14.571 38.9667C14.3571 39.3167 14.2502 39.7056 14.2502 40.1334V42ZM28.2502 23.3334C29.5335 23.3334 30.6321 22.8764 31.546 21.9625C32.4599 21.0487 32.9168 19.95 32.9168 18.6667C32.9168 17.3834 32.4599 16.2848 31.546 15.3709C30.6321 14.457 29.5335 14 28.2502 14C26.9668 14 25.8682 14.457 24.9543 15.3709C24.0404 16.2848 23.5835 17.3834 23.5835 18.6667C23.5835 19.95 24.0404 21.0487 24.9543 21.9625C25.8682 22.8764 26.9668 23.3334 28.2502 23.3334Z" fill="#1D1B20"/>
</svg>
