<svg width="13" height="13" viewBox="0 0 13 13" fill="none" xmlns="http://www.w3.org/2000/svg">
<path d="M10.22 6.16281L4.18253 1.44719C4.16676 1.43477 4.1478 1.42705 4.12783 1.42492C4.10787 1.42279 4.08771 1.42633 4.06966 1.43514C4.05162 1.44395 4.03643 1.45768 4.02584 1.47473C4.01524 1.49179 4.00967 1.51149 4.00977 1.53156V2.56683C4.00977 2.63246 4.04057 2.6954 4.09146 2.73558L8.91289 6.50031L4.09146 10.265C4.03923 10.3052 4.00977 10.3682 4.00977 10.4338V11.4691C4.00977 11.5588 4.11289 11.6083 4.18253 11.5534L10.22 6.83781C10.2714 6.79779 10.3129 6.74658 10.3414 6.6881C10.37 6.62962 10.3848 6.56539 10.3848 6.50031C10.3848 6.43523 10.37 6.37101 10.3414 6.31253C10.3129 6.25404 10.2714 6.20284 10.22 6.16281Z" fill="black" fill-opacity="0.85"/>
</svg>
