<svg width="15" height="14" viewBox="0 0 15 14" fill="none" xmlns="http://www.w3.org/2000/svg">
<g clip-path="url(#clip0_301_6426)">
<path d="M13.3795 12.3535L9.32168 8.29565C9.95137 7.48159 10.292 6.48627 10.292 5.4394C10.292 4.18627 9.80293 3.01127 8.91855 2.12534C8.03418 1.2394 6.85605 0.751899 5.60449 0.751899C4.35293 0.751899 3.1748 1.24096 2.29043 2.12534C1.40449 3.00971 0.916992 4.18627 0.916992 5.4394C0.916992 6.69096 1.40605 7.86909 2.29043 8.75346C3.1748 9.6394 4.35137 10.1269 5.60449 10.1269C6.65137 10.1269 7.64512 9.78627 8.45918 9.15815L12.517 13.2144C12.5289 13.2263 12.543 13.2357 12.5586 13.2422C12.5741 13.2486 12.5908 13.252 12.6076 13.252C12.6244 13.252 12.6411 13.2486 12.6567 13.2422C12.6722 13.2357 12.6863 13.2263 12.6982 13.2144L13.3795 12.5347C13.3914 12.5228 13.4008 12.5087 13.4073 12.4931C13.4137 12.4776 13.417 12.4609 13.417 12.4441C13.417 12.4273 13.4137 12.4106 13.4073 12.395C13.4008 12.3795 13.3914 12.3654 13.3795 12.3535V12.3535ZM8.07949 7.9144C7.41699 8.57534 6.53887 8.9394 5.60449 8.9394C4.67012 8.9394 3.79199 8.57534 3.12949 7.9144C2.46855 7.2519 2.10449 6.37377 2.10449 5.4394C2.10449 4.50502 2.46855 3.62534 3.12949 2.9644C3.79199 2.30346 4.67012 1.9394 5.60449 1.9394C6.53887 1.9394 7.41856 2.3019 8.07949 2.9644C8.74043 3.6269 9.10449 4.50502 9.10449 5.4394C9.10449 6.37377 8.74043 7.25346 8.07949 7.9144Z" fill="black" fill-opacity="0.85"/>
</g>
<defs>
<clipPath id="clip0_301_6426">
<rect width="14" height="14" fill="white" transform="translate(0.166992)"/>
</clipPath>
</defs>
</svg>
