<svg width="13" height="13" viewBox="0 0 13 13" fill="none" xmlns="http://www.w3.org/2000/svg">
<path d="M12.5 1.37671H9.875V0.376709C9.875 0.307959 9.81875 0.251709 9.75 0.251709H8.875C8.80625 0.251709 8.75 0.307959 8.75 0.376709V1.37671H4.75V0.376709C4.75 0.307959 4.69375 0.251709 4.625 0.251709H3.75C3.68125 0.251709 3.625 0.307959 3.625 0.376709V1.37671H1C0.723438 1.37671 0.5 1.60015 0.5 1.87671V12.2517C0.5 12.5283 0.723438 12.7517 1 12.7517H12.5C12.7766 12.7517 13 12.5283 13 12.2517V1.87671C13 1.60015 12.7766 1.37671 12.5 1.37671ZM11.875 11.6267H1.625V5.68921H11.875V11.6267ZM1.625 4.62671V2.50171H3.625V3.25171C3.625 3.32046 3.68125 3.37671 3.75 3.37671H4.625C4.69375 3.37671 4.75 3.32046 4.75 3.25171V2.50171H8.75V3.25171C8.75 3.32046 8.80625 3.37671 8.875 3.37671H9.75C9.81875 3.37671 9.875 3.32046 9.875 3.25171V2.50171H11.875V4.62671H1.625Z" fill="black" fill-opacity="0.25"/>
</svg>
