<svg width="22" height="23" viewBox="0 0 22 23" fill="none" xmlns="http://www.w3.org/2000/svg">
<path d="M11 0.769287C8.82441 0.769287 6.69767 1.41443 4.88873 2.62312C3.07979 3.83182 1.66989 5.54978 0.83733 7.55977C0.00476611 9.56976 -0.213071 11.7815 0.211367 13.9153C0.635804 16.0491 1.68345 18.0091 3.22183 19.5475C4.76021 21.0858 6.72022 22.1335 8.85401 22.5579C10.9878 22.9824 13.1995 22.7645 15.2095 21.932C17.2195 21.0994 18.9375 19.6895 20.1462 17.8806C21.3549 16.0716 22 13.9449 22 11.7693C22 8.8519 20.8411 6.05401 18.7782 3.99111C16.7153 1.92821 13.9174 0.769287 11 0.769287ZM9.42857 16.1614L5.5 12.2329L6.74929 10.9836L9.42857 13.6629L15.2507 7.84071L16.5047 9.08686L9.42857 16.1614Z" fill="white"/>
</svg>
