<svg width="22" height="23" viewBox="0 0 22 23" fill="none" xmlns="http://www.w3.org/2000/svg">
<path d="M11 0.384644C8.82441 0.384644 6.69767 1.02978 4.88873 2.23848C3.07979 3.44717 1.66989 5.16514 0.83733 7.17512C0.00476611 9.18511 -0.213071 11.3968 0.211367 13.5306C0.635804 15.6644 1.68345 17.6244 3.22183 19.1628C4.76021 20.7012 6.72022 21.7488 8.85401 22.1733C10.9878 22.5977 13.1995 22.3799 15.2095 21.5473C17.2195 20.7148 18.9375 19.3049 20.1462 17.4959C21.3549 15.687 22 13.5602 22 11.3846C22 8.46726 20.8411 5.66937 18.7782 3.60647C16.7153 1.54357 13.9174 0.384644 11 0.384644ZM9.42857 15.7768L5.5 11.8482L6.74929 10.5989L9.42857 13.2782L15.2507 7.45607L16.5047 8.70221L9.42857 15.7768Z" fill="white"/>
</svg>
