<svg width="32" height="32" viewBox="0 0 32 32" fill="none" xmlns="http://www.w3.org/2000/svg">
<path d="M15.75 0C7.05234 0 0 7.05234 0 15.75C0 24.4477 7.05234 31.5 15.75 31.5C24.4477 31.5 31.5 24.4477 31.5 15.75C31.5 7.05234 24.4477 0 15.75 0ZM19.4062 11.141C19.4062 11.4996 19.234 11.8406 18.9422 12.0516L13.8305 15.75L18.9422 19.4484C19.234 19.6594 19.4062 19.9969 19.4062 20.359V22.0078C19.4062 22.2363 19.1461 22.3699 18.9598 22.2363L10.3113 15.9785C10.2754 15.9526 10.2461 15.9186 10.2259 15.8791C10.2058 15.8397 10.1952 15.7961 10.1952 15.7518C10.1952 15.7075 10.2058 15.6638 10.2259 15.6244C10.2461 15.585 10.2754 15.5509 10.3113 15.525L18.9598 9.26719C19.0018 9.23667 19.0515 9.21839 19.1032 9.21437C19.155 9.21035 19.2069 9.22075 19.2531 9.24442C19.2994 9.26808 19.3382 9.30408 19.3652 9.34844C19.3922 9.39279 19.4064 9.44376 19.4062 9.4957V11.141Z" fill="black" fill-opacity="0.85"/>
</svg>
