<?xml version="1.0" encoding="utf-8"?>
<!-- Generator: Adobe Illustrator 25.4.1, SVG Export Plug-In . SVG Version: 6.00 Build 0)  -->
<svg version="1.1" id="Layer_1" xmlns="http://www.w3.org/2000/svg" xmlns:xlink="http://www.w3.org/1999/xlink" x="0px" y="0px"
	 viewBox="0 0 430.7 291.4" style="enable-background:new 0 0 430.7 291.4;" xml:space="preserve">
<style type="text/css">
	.st0{fill:#16223A;}
	.st1{fill:url(#SVGID_1_);}
	.st2{fill:url(#SVGID_00000103964069964398180320000006480445146169214341_);}
	.st3{fill:url(#SVGID_00000035509436599100531240000016458474147657243796_);}
	.st4{fill:#1D2025;}
	.st5{fill:url(#SVGID_00000160184414049715907310000002605414697229234099_);}
	.st6{fill:url(#SVGID_00000102514421155197186150000003867297390456039062_);}
	.st7{fill:url(#SVGID_00000013898865713332030510000003578339567086642826_);}
	.st8{fill:url(#SVGID_00000165950443566868072940000014284350643748632970_);}
	.st9{fill:url(#SVGID_00000145054942052822081920000016937555030613479590_);}
	.st10{fill:url(#SVGID_00000027587880681143915220000015035261929094414783_);}
	.st11{fill:url(#SVGID_00000068654178100612634910000006133978151694771359_);}
	.st12{fill:url(#SVGID_00000083085542022822190500000009479112124565820050_);}
	.st13{fill:url(#SVGID_00000016063461146055612000000017939379557000654754_);}
	.st14{fill:url(#SVGID_00000170238509377300949470000017221685037099013804_);}
	.st15{fill:url(#SVGID_00000181084708963063995870000011054601122279794611_);}
	.st16{fill:url(#SVGID_00000116944503886408827910000000831186523131912081_);}
</style>
<g>
	<g>
		<path class="st0" d="M15,276.1v-56.4c0-2.6,0-5.1,2.3-7.4c2.2-2.2,5.2-2.6,7.5-2.6h31.6c3.5,0,9.1-0.1,13.2,4
			c4.5,4.3,5,11.9,5,17.4c0,5.3-0.6,13.9-5.8,18.2c-2.6,2-6.3,3.2-10.1,3.2H27.5v23.5H15z M51.3,242.6c2.7,0,6,0.1,8.1-2.5
			c2-2.3,2.2-6.5,2.2-9.1c0-2.9-0.2-6.9-2.4-9.1c-2.2-2.2-5.6-2.3-7.8-2.3H31.3c-0.9,0-1.9-0.2-2.9,0.9c-0.9,0.9-0.9,2-0.9,3.1v19
			H51.3z"/>
		<path class="st0" d="M112.4,276.1v-66.3h12.5v66.3H112.4z"/>
		<path class="st0" d="M228.2,267.5c0,6.7-4.5,9.4-9.9,9.4c-4.1,0-7.8-0.9-10.7-5.6l-28-44.2c-1-1.4-1.2-1.6-1.5-1.6
			c-0.5,0-1.3,0.5-1.3,1.9v48.7h-12.1V218c0-5.7,3.8-9,10.1-9c6,0,8.7,2.3,10.5,5.2l28.1,44.4c0.5,0.7,0.7,1.6,1.5,1.6
			c1,0,1-1.1,1-1.6v-48.9h12.1V267.5z"/>
		<path class="st0" d="M278,276.1c-2.9,0-5.4,0.1-7.6-2.1c-2.3-2.2-2.5-5.2-2.5-7.8v-47c0-2.7,0.9-5.3,2.3-6.9
			c2.2-2.4,5.4-2.6,8-2.6h42.5v9.9H285c-1.1,0-2.4,0.1-3.4,0.9c-1,1-1,2.2-1,3.2v13.4h39.3v9.9h-39.3v15.5c0,1.2,0.3,2.1,0.9,2.6
			c0.8,0.8,2.3,0.9,4.3,0.9h35.4v9.9H278z"/>
		<path class="st0" d="M400.1,262.6c3-3.3,3.1-8.2,3.1-11.6v-41.3h12.5v43c0,5.7-0.8,11.8-5.8,17c-6.5,6.8-17.1,7.1-23,7.1
			c-6,0-16.5-0.3-23-7.1c-5-5.2-5.8-11.3-5.8-17v-43h12.5v41.3c0,3.7,0.1,8.1,3.2,11.6c3.5,3.8,9.2,4.3,13.1,4.3
			C390.5,266.9,396.6,266.4,400.1,262.6z"/>
	</g>
	<g>
		<g>
			
				<linearGradient id="SVGID_1_" gradientUnits="userSpaceOnUse" x1="299.0813" y1="66.7937" x2="300.9984" y2="44.3548" gradientTransform="matrix(1 0 0 1 -87.3093 -26.4579)">
				<stop  offset="9.739835e-02" style="stop-color:#7DBFD2"/>
				<stop  offset="1" style="stop-color:#214677"/>
			</linearGradient>
			<circle class="st1" cx="212.9" cy="27.5" r="12.9"/>
			<g>
				
					<linearGradient id="SVGID_00000060711803551107543700000017417542550727686529_" gradientUnits="userSpaceOnUse" x1="839.1043" y1="-3277.1309" x2="841.0214" y2="-3299.5698" gradientTransform="matrix(-0.3871 0.922 -0.922 -0.3871 -2439.3943 -1925.1967)">
					<stop  offset="9.739835e-02" style="stop-color:#7DBFD2"/>
					<stop  offset="1" style="stop-color:#214677"/>
				</linearGradient>
				<circle style="fill:url(#SVGID_00000060711803551107543700000017417542550727686529_);" cx="268.8" cy="123.1" r="12.9"/>
				
					<linearGradient id="SVGID_00000020362661687798252600000016616945910511280820_" gradientUnits="userSpaceOnUse" x1="-2988.4294" y1="-2686.0842" x2="-2986.5122" y2="-2708.5229" gradientTransform="matrix(-0.7071 -0.7071 0.7071 -0.7071 -45.2622 -3897.7271)">
					<stop  offset="9.739835e-02" style="stop-color:#7DBFD2"/>
					<stop  offset="1" style="stop-color:#214677"/>
				</linearGradient>
				<circle style="fill:url(#SVGID_00000020362661687798252600000016616945910511280820_);" cx="158.7" cy="123.1" r="12.9"/>
			</g>
		</g>
		<g>
			<g>
				<path class="st4" d="M252.2,93.9"/>
				
					<linearGradient id="SVGID_00000165926487188444747960000011515955919059963529_" gradientUnits="userSpaceOnUse" x1="-2232.335" y1="-2406.6987" x2="-2204.1262" y2="-2424.9834" gradientTransform="matrix(0.9878 0.1555 0.1555 -0.9878 2815.1938 -1999.4442)">
					<stop  offset="3.833903e-02" style="stop-color:#7DBFD2"/>
					<stop  offset="0.9033" style="stop-color:#214677"/>
				</linearGradient>
				<path style="fill:url(#SVGID_00000165926487188444747960000011515955919059963529_);" d="M258,38.9c0,0.7-0.1,2.7,0,5.7
					c0,1,0,1.5,0.1,2c0,0.4,0.4,3.6,1.8,6.5c3.6,7.5,10.7,10,12.2,10.5c-0.3-0.1-0.7-0.2-1.1-0.4c-3.4-1.2-5.5-2.6-7.7-4
					c-3.2-1.9-4.8-2.9-6.6-3.7c-2.2-1-4.2-1.4-8.2-2.4c-2.4-0.6-4.4-1-5.8-1.3c-1.2-0.2-4.7-1.1-7.4-4.2c-0.3-0.3-4.4-5.2-2.9-11.6
					c1.3-5.5,6.2-9.5,11.7-9.9c0.3,0,6.1-0.4,10.2,3.9C256.6,32.5,258,36,258,38.9z"/>
				
					<linearGradient id="SVGID_00000160153740756814698980000002342936278120534447_" gradientUnits="userSpaceOnUse" x1="-2013.5624" y1="1473.3995" x2="-1985.3536" y2="1455.115" gradientTransform="matrix(0.9883 0.1526 -0.1526 0.9883 2437.4844 -1030.943)">
					<stop  offset="3.833903e-02" style="stop-color:#7DBFD2"/>
					<stop  offset="0.9033" style="stop-color:#214677"/>
				</linearGradient>
				<path style="fill:url(#SVGID_00000160153740756814698980000002342936278120534447_);" d="M246.1,117.1c0.2-0.7,0.7-2.6,1.7-5.4
					c0.3-0.9,0.5-1.4,0.7-1.9c0.2-0.4,1.5-3.3,3.7-5.6c5.7-6.1,13.3-6.3,14.8-6.3c-0.3,0-0.7,0-1.2,0c-3.6,0.1-6.1,0.8-8.6,1.4
					c-3.6,0.9-5.4,1.3-7.4,1.5c-2.4,0.2-4.5,0.1-8.5-0.2c-2.4-0.2-4.5-0.4-5.9-0.5c-1.2-0.1-4.8-0.4-8.4,1.7
					c-0.4,0.2-5.8,3.6-6.2,10.2c-0.4,5.6,3.1,10.9,8.1,13c0.3,0.1,5.7,2.2,10.9-0.6C242.9,122.8,245.2,119.8,246.1,117.1z"/>
				<path class="st4" d="M257.2,63"/>
				
					<linearGradient id="SVGID_00000080189024277116701990000010017169203099193255_" gradientUnits="userSpaceOnUse" x1="103.0118" y1="111.2817" x2="130.4718" y2="150.6154" gradientTransform="matrix(0.9973 -7.350573e-02 7.350573e-02 0.9973 144.7093 -46.9925)">
					<stop  offset="3.833903e-02" style="stop-color:#7DBFD2"/>
					<stop  offset="0.9033" style="stop-color:#214677"/>
				</linearGradient>
				<path style="fill:url(#SVGID_00000080189024277116701990000010017169203099193255_);" d="M290.6,71.7c-0.4-0.6-2.2-3.1-5.5-5.1
					c-3.8-2.2-7.4-2.4-9.3-2.4c-0.4,0-0.9,0-1.3-0.1c-0.6-0.1-1.4-0.3-2.3-0.5c-2.8-0.8-4.6-1.9-7.2-3.4c-4.5-2.6-6.8-3.9-7.5-4.2
					c-3-1.3-5.6-2-8-2.6c-2.5-0.6-4.7-1.1-6.3-1.3c0.4,0.1,0.9,0.2,1.6,0.5c0.5,0.2,2.9,0.9,5.1,2.3c4.3,2.6,6.8,6.4,7,6.7
					c0.7,1.2,2.2,3.6,2.8,7.1c0,0.2,0.1,0.7,0.2,1.3c0.3,2.4,0,4.7-0.7,7c-0.6,1.9-0.8,4-0.6,6.1c0.7,9.6,9.1,16.9,18.7,16.2
					c2.4-0.2,4.6-1,5-1.1c0.5-0.2,4.2-1.7,7-5C294.3,87.3,294.8,77.9,290.6,71.7z"/>
			</g>
			
				<linearGradient id="SVGID_00000051346754671099842350000000747968562661891740_" gradientUnits="userSpaceOnUse" x1="976.6425" y1="-3674.7964" x2="1004.1025" y2="-3635.4626" gradientTransform="matrix(0.928 0.3725 0.3725 -0.928 711.7031 -3674.4333)">
				<stop  offset="3.833903e-02" style="stop-color:#7DBFD2"/>
				<stop  offset="0.9033" style="stop-color:#214677"/>
			</linearGradient>
			<path style="fill:url(#SVGID_00000051346754671099842350000000747968562661891740_);" d="M287,95.7c-0.5,0.4-3,2.3-6.8,3.2
				c-4.2,1-7.8,0.1-9.6-0.5c-0.4-0.1-0.9-0.2-1.3-0.3c-0.6-0.1-1.4-0.1-2.3-0.2c-2.9-0.1-5,0.4-7.9,1.1c-5.1,1.1-7.7,1.7-8.4,1.8
				c-3.3,0.4-5.9,0.2-8.4,0.1c-2.6-0.1-4.8-0.4-6.4-0.7c0.4,0,1,0.1,1.6,0.1c0.6,0,3.1,0,5.6-0.6c4.9-1.1,8.5-4,8.7-4.2
				c1.1-0.9,3.2-2.8,4.9-6c0.1-0.2,0.3-0.6,0.6-1.2c1-2.2,1.4-4.5,1.5-6.9c0.1-2,0.5-4,1.3-6c3.6-9,13.8-13.3,22.8-9.7
				c2.2,0.9,4.1,2.3,4.5,2.6c0.4,0.3,3.5,2.9,5.2,6.9C295.3,82,292.9,91.1,287,95.7z"/>
		</g>
		<g>
			<g>
				<path class="st4" d="M218,143.9"/>
				
					<linearGradient id="SVGID_00000125593880211410640520000000376344067348376491_" gradientUnits="userSpaceOnUse" x1="-2546.6863" y1="-2651.3115" x2="-2518.4775" y2="-2669.5959" gradientTransform="matrix(-0.6584 0.7527 -0.7527 -0.6584 -3482.1689 256.3688)">
					<stop  offset="3.833903e-02" style="stop-color:#7DBFD2"/>
					<stop  offset="0.9033" style="stop-color:#214677"/>
				</linearGradient>
				<path style="fill:url(#SVGID_00000125593880211410640520000000376344067348376491_);" d="M178.2,105.4c0.5,0.6,1.8,2,3.6,4.4
					c0.6,0.8,0.9,1.2,1.2,1.6c0.2,0.4,2,3,2.8,6.1c2.1,8.1-1.8,14.6-2.6,15.9c0.1-0.2,0.4-0.6,0.6-1c1.8-3.1,2.6-5.6,3.4-8
					c1.2-3.5,1.8-5.3,2.7-7c1.1-2.2,2.3-3.8,4.7-7.1c1.5-2,2.7-3.6,3.6-4.7c0.8-0.9,2.9-3.8,3-8c0-0.4,0.1-6.8-5.2-10.7
					c-4.5-3.3-10.8-3.3-15.3-0.1c-0.2,0.2-4.9,3.6-5.4,9.5C175.2,99.6,176.4,103.2,178.2,105.4z"/>
				
					<linearGradient id="SVGID_00000134972143402710922050000003152922861386278835_" gradientUnits="userSpaceOnUse" x1="-2328.6189" y1="1717.1031" x2="-2300.4102" y2="1698.8187" gradientTransform="matrix(-0.6606 0.7508 0.7508 0.6606 -2571.3362 757.4105)">
					<stop  offset="3.833903e-02" style="stop-color:#7DBFD2"/>
					<stop  offset="0.9033" style="stop-color:#214677"/>
				</linearGradient>
				<path style="fill:url(#SVGID_00000134972143402710922050000003152922861386278835_);" d="M237.5,157.8c-0.6-0.4-2.2-1.5-4.8-3
					c-0.8-0.5-1.3-0.8-1.7-1c-0.4-0.2-3.2-1.6-6.4-2c-8.3-1-14.2,3.7-15.4,4.6c0.2-0.2,0.5-0.4,0.9-0.7c2.8-2.2,5.2-3.3,7.5-4.4
					c3.3-1.7,5-2.5,6.6-3.6c2-1.4,3.5-2.8,6.4-5.6c1.8-1.7,3.2-3.1,4.2-4.2c0.8-0.9,3.4-3.4,7.6-4c0.4-0.1,6.8-0.9,11.3,3.8
					c3.9,4.1,4.6,10.3,2.1,15.1c-0.1,0.3-2.9,5.3-8.7,6.6C243.6,160.1,239.9,159.3,237.5,157.8z"/>
				<path class="st4" d="M194.2,123.4"/>
				
					<linearGradient id="SVGID_00000150811167105434129680000005833459585377622454_" gradientUnits="userSpaceOnUse" x1="-258.7704" y1="277.9124" x2="-231.3104" y2="317.2461" gradientTransform="matrix(-0.8124 0.583 0.583 0.8124 -180.9908 42.4107)">
					<stop  offset="3.833903e-02" style="stop-color:#7DBFD2"/>
					<stop  offset="0.9033" style="stop-color:#214677"/>
				</linearGradient>
				<path style="fill:url(#SVGID_00000150811167105434129680000005833459585377622454_);" d="M174.2,151.5c-0.1-0.7-0.3-3.8,1-7.4
					c1.5-4.1,4.1-6.6,5.6-7.8c0.3-0.3,0.7-0.6,0.9-0.9c0.4-0.5,0.9-1.1,1.4-1.9c1.6-2.4,2.3-4.4,3.3-7.2c1.8-4.9,2.7-7.4,3-8
					c1.4-2.9,3-5.1,4.5-7.2c1.5-2.1,2.9-3.8,4-5c-0.2,0.3-0.6,0.8-0.9,1.4c-0.3,0.5-1.6,2.6-2.5,5c-1.7,4.8-1.2,9.3-1.1,9.7
					c0.2,1.4,0.7,4.2,2.4,7.3c0.1,0.2,0.3,0.6,0.7,1.1c1.3,2,3,3.6,5,4.9c1.7,1.1,3.2,2.6,4.4,4.3c5.6,7.9,3.8,18.8-4,24.4
					c-2,1.4-4.1,2.2-4.6,2.4c-0.5,0.2-4.3,1.4-8.6,0.7C181.4,165.8,175,158.9,174.2,151.5z"/>
			</g>
			
				<linearGradient id="SVGID_00000140714186380115484780000017066183494399246224_" gradientUnits="userSpaceOnUse" x1="724.9908" y1="-3983.5408" x2="752.4508" y2="-3944.207" gradientTransform="matrix(-0.4733 0.8809 -0.8809 -0.4733 -2941.9314 -2377.7166)">
				<stop  offset="3.833903e-02" style="stop-color:#7DBFD2"/>
				<stop  offset="0.9033" style="stop-color:#214677"/>
			</linearGradient>
			<path style="fill:url(#SVGID_00000140714186380115484780000017066183494399246224_);" d="M192.4,167.6c0.7,0,3.8-0.1,7.3-1.9
				c3.9-2,6-4.9,7-6.6c0.2-0.4,0.5-0.7,0.8-1.1c0.4-0.5,1-1,1.7-1.6c2.2-1.9,4.1-2.9,6.7-4.2c4.6-2.4,7-3.6,7.6-4
				c2.7-1.8,4.7-3.6,6.5-5.3c1.9-1.8,3.4-3.4,4.5-4.6c-0.3,0.3-0.7,0.7-1.2,1.1c-0.4,0.4-2.4,1.9-4.7,3.1c-4.5,2.3-9.1,2.4-9.4,2.4
				c-1.4,0-4.2-0.1-7.6-1.4c-0.2-0.1-0.6-0.3-1.2-0.5c-2.1-1-4-2.6-5.5-4.3c-1.3-1.5-2.9-2.8-4.8-3.8c-8.5-4.6-19.1-1.4-23.7,7.1
				c-1.1,2.1-1.7,4.4-1.7,4.8c-0.1,0.5-0.9,4.5,0.4,8.6C177.2,162.4,184.9,167.8,192.4,167.6z"/>
		</g>
		<g>
			<g>
				<path class="st4" d="M165.8,68.6"/>
				
					<linearGradient id="SVGID_00000134948927582424004670000001530017694681383602_" gradientUnits="userSpaceOnUse" x1="-5731.96" y1="-323.6557" x2="-5703.7515" y2="-341.9402" gradientTransform="matrix(-0.3143 -0.9493 0.9493 -0.3143 -1263.8004 -5468.7988)">
					<stop  offset="3.833903e-02" style="stop-color:#7DBFD2"/>
					<stop  offset="0.9033" style="stop-color:#214677"/>
				</linearGradient>
				<path style="fill:url(#SVGID_00000134948927582424004670000001530017694681383602_);" d="M219.2,53.9c-0.7,0.1-2.6,0.5-5.6,0.9
					c-1,0.1-1.5,0.2-2,0.2c-0.4,0-3.6,0.2-6.7-0.7c-8-2.3-11.7-8.9-12.4-10.3c0.1,0.2,0.3,0.6,0.6,1.1c1.8,3.1,3.5,5,5.2,7
					c2.4,2.8,3.6,4.3,4.7,5.9c1.3,2.1,2.1,3.9,3.7,7.7c1,2.3,1.7,4.1,2.2,5.5c0.4,1.1,1.8,4.5,5.4,6.7c0.4,0.2,5.9,3.5,11.9,0.9
					c5.2-2.2,8.3-7.7,7.9-13.1c0-0.3-0.6-6-5.5-9.4C225.7,54.2,221.9,53.4,219.2,53.9z"/>
				
					<linearGradient id="SVGID_00000066515804112000515730000009252342679418647945_" gradientUnits="userSpaceOnUse" x1="-5507.1562" y1="-619.7429" x2="-5478.9478" y2="-638.0273" gradientTransform="matrix(-0.3116 -0.9502 -0.9502 0.3116 -2157.8298 -4938.3555)">
					<stop  offset="3.833903e-02" style="stop-color:#7DBFD2"/>
					<stop  offset="0.9033" style="stop-color:#214677"/>
				</linearGradient>
				<path style="fill:url(#SVGID_00000066515804112000515730000009252342679418647945_);" d="M143.8,78.4c0.6-0.3,2.4-1.1,5.1-2.6
					c0.9-0.5,1.3-0.7,1.7-1c0.4-0.2,3-2,5-4.5c5.1-6.6,4.1-14.1,3.8-15.6c0,0.3,0.1,0.7,0.2,1.2c0.5,3.6,0.2,6.1,0,8.7
					c-0.3,3.7-0.4,5.6-0.2,7.5c0.2,2.4,0.7,4.4,1.6,8.4c0.6,2.4,1.1,4.4,1.5,5.7c0.3,1.2,1.2,4.7-0.4,8.6c-0.2,0.4-2.6,6.3-9,7.8
					c-5.5,1.3-11.3-1.2-14.1-5.9c-0.2-0.3-3.1-5.2-1.2-10.8C138.8,82.5,141.3,79.6,143.8,78.4z"/>
				<path class="st4" d="M195.5,58.5"/>
				
					<linearGradient id="SVGID_00000024705937638502215120000003140370755674497204_" gradientUnits="userSpaceOnUse" x1="-2830.5422" y1="-2713.7327" x2="-2803.082" y2="-2674.3989" gradientTransform="matrix(-8.994702e-02 -0.9959 -0.9959 8.994702e-02 -2755.116 -2515.9136)">
					<stop  offset="3.833903e-02" style="stop-color:#7DBFD2"/>
					<stop  offset="0.9033" style="stop-color:#214677"/>
				</linearGradient>
				<path style="fill:url(#SVGID_00000024705937638502215120000003140370755674497204_);" d="M181.5,27.1c0.6,0.3,3.4,1.6,5.9,4.6
					c2.8,3.4,3.6,6.9,3.9,8.8c0.1,0.4,0.2,0.9,0.3,1.3c0.2,0.6,0.5,1.3,0.9,2.1c1.3,2.6,2.6,4.2,4.5,6.5c3.3,4,5,6.1,5.4,6.7
					c1.8,2.7,2.9,5.2,3.9,7.5c1,2.4,1.8,4.4,2.3,6c-0.2-0.4-0.4-0.9-0.7-1.5c-0.3-0.5-1.4-2.7-3.1-4.7c-3.2-3.9-7.4-5.7-7.7-5.9
					c-1.3-0.5-4-1.5-7.5-1.6c-0.2,0-0.7,0-1.3,0c-2.4,0.1-4.7,0.8-6.8,1.8c-1.8,0.9-3.8,1.4-5.9,1.6c-9.6,0.9-18.1-6.2-19-15.9
					c-0.2-2.4,0.2-4.7,0.3-5.1c0.1-0.5,1-4.5,3.8-7.7C165.4,25.9,174.6,23.9,181.5,27.1z"/>
			</g>
			
				<linearGradient id="SVGID_00000165226934624681648070000006989613600979460242_" gradientUnits="userSpaceOnUse" x1="-2900.3206" y1="-2427.5754" x2="-2872.8606" y2="-2388.2417" gradientTransform="matrix(-0.5187 -0.8549 0.8549 -0.5187 731.4949 -3666.2844)">
				<stop  offset="3.833903e-02" style="stop-color:#7DBFD2"/>
				<stop  offset="0.9033" style="stop-color:#214677"/>
			</linearGradient>
			<path style="fill:url(#SVGID_00000165226934624681648070000006989613600979460242_);" d="M158.3,34.5c-0.3,0.6-1.8,3.3-2,7.2
				c-0.2,4.3,1.2,7.7,2.1,9.4c0.2,0.4,0.4,0.8,0.5,1.2c0.2,0.6,0.4,1.4,0.5,2.3c0.5,2.8,0.4,5,0.2,7.9c-0.3,5.2-0.4,7.8-0.4,8.6
				c0.2,3.3,0.7,5.9,1.3,8.3c0.6,2.5,1.2,4.6,1.7,6.2c-0.1-0.4-0.2-1-0.3-1.6c-0.1-0.6-0.5-3-0.3-5.6c0.3-5,2.6-9,2.8-9.3
				c0.7-1.2,2.3-3.6,5.1-5.8c0.2-0.1,0.5-0.4,1.1-0.8c2-1.3,4.2-2.1,6.5-2.6c2-0.4,3.9-1.1,5.7-2.2c8.3-5,10.9-15.8,5.9-24.1
				c-1.2-2.1-2.9-3.7-3.3-4c-0.4-0.4-3.4-3-7.6-4C170.5,24.1,162,27.9,158.3,34.5z"/>
		</g>
	</g>
</g>
</svg>
